<?xml version="1.0" encoding="UTF-8"?>
<svg id="Calque_1" xmlns="http://www.w3.org/2000/svg" version="1.1" viewBox="0 0 429.49 219.57">
  <!-- Generator: Adobe Illustrator 30.1.0, SVG Export Plug-In . SVG Version: 2.1.1 Build 136)  -->
  <defs>
    <style>
      .st0 {
        fill: #d0d0d0;
      }
    </style>
  </defs>
  <path class="st0" d="M41.5,178.17c-2.72-2-5.49-3.84-8.33-5.52-3-1.84-5.79-3.64-8.39-5.4-2.59-1.76-4.68-3.62-6.26-5.58-1.58-1.96-2.37-4.14-2.37-6.54,0-3.36.67-6.04,2.01-8.04,1.34-2,3.06-3.44,5.17-4.32,2.11-.88,4.38-1.32,6.81-1.32,3.48,0,6.36,1.12,8.63,3.36,2.27,2.24,4.25,5.48,5.96,9.72.16.48.59.88,1.28,1.2.69.32,1.4.48,2.13.48,1.22,0,1.82-.44,1.82-1.32,0-1.92-.29-3.96-.85-6.12-.57-2.16-1.09-4.08-1.58-5.76-.16-.64-.47-1.24-.91-1.8-.45-.56-.99-.96-1.64-1.2-1.3-.56-3.02-1.14-5.17-1.74-2.15-.6-4.68-.9-7.6-.9-5.67,0-10.39.98-14.16,2.94-3.77,1.96-6.58,4.58-8.45,7.86-1.86,3.28-2.8,6.96-2.8,11.04,0,3.84,1.01,7.1,3.04,9.78,2.02,2.68,4.58,5.04,7.66,7.08,3.08,2.04,6.2,4.06,9.36,6.06,2.92,1.76,5.39,3.4,7.41,4.92,2.02,1.52,3.58,3.3,4.68,5.34s1.64,4.7,1.64,7.98c0,2.96-.63,5.54-1.88,7.74-1.26,2.2-2.98,3.9-5.17,5.1s-4.7,1.8-7.54,1.8c-3.48,0-6.83-1.32-10.03-3.96-3.2-2.64-5.61-7.04-7.23-13.2-.08-.48-.32-.82-.73-1.02-.41-.2-.81-.3-1.22-.3-.65,0-1.22.14-1.7.42-.49.28-.73.7-.73,1.26.16,1.68.3,3.8.43,6.36.12,2.56.38,4.64.79,6.24.16.48.38.92.67,1.32.28.4.59.76.91,1.08,2.27,1.84,4.84,3.26,7.72,4.26,2.88,1,6.02,1.5,9.42,1.5,5.35,0,10.01-.96,13.98-2.88,3.97-1.92,7.05-4.66,9.24-8.22,2.19-3.56,3.28-7.7,3.28-12.42,0-4-.87-7.38-2.61-10.14-1.74-2.76-3.97-5.14-6.68-7.14Z"/>
  <path class="st0" d="M122.02,201.21c-1.03,2.17-1.97,3.78-2.73,4.86-.77,1.08-1.92,2.36-3.59,3.66-3.02,2.36-5.37,3.12-9.48,3.12h-15.07c-3.97,0-6.52-.6-7.66-1.8-1.14-1.2-1.7-3.04-1.7-5.52v-56.52c0-2.32,1.05-3.86,3.16-4.62,2.11-.76,4.66-1.42,7.66-1.98,1.38-.24,2.39-.56,3.04-.96.65-.4.97-.88.97-1.44,0-.48-.32-.82-.97-1.02-.65-.2-1.5-.3-2.55-.3-2.19,0-4.05.04-5.59.12-1.54.08-3.04.14-4.5.18-1.46.04-3.2.06-5.23.06-1.78,0-3.28-.02-4.5-.06-1.22-.04-2.49-.1-3.83-.18-1.34-.08-3.1-.12-5.29-.12-1.05,0-1.9.1-2.55.3-.65.2-.97.54-.97,1.02,0,1.12,1.34,1.92,4.01,2.4,2.02.32,3.56.7,4.62,1.14,1.05.44,1.78,1.12,2.19,2.04.4.92.61,2.34.61,4.26v55.68c0,2.64-.85,4.58-2.55,5.82-1.7,1.24-4.91,2.38-7.29,2.82-1.75.33-2.67.81-2.67,2.04s1.4,1.55,3.4,1.44,6.99-.4,9.54-.48c2.55-.08,4.84-.12,6.87-.12,3.08,0,6.2.04,9.36.12,3.16.08,6.46.14,9.91.18,3.44.04,7.03.1,10.76.18,3.73.08,7.61.12,11.67.12.94,0,1.6-.67,1.7-2.04.13-1.68.38-3.28.67-4.8.28-1.52.65-3.12,1.09-4.8.38-1.42.97-3.7,1.41-5.39.51-1.97.17-2.64-.71-2.84-1.11-.25-1.83.57-3.19,3.43Z"/>
  <path class="st0" d="M211.22,214.83c-.65-.52-1.66-.9-3.04-1.14-1.62-.32-3.14-.8-4.56-1.44-1.42-.64-2.78-1.76-4.07-3.36-1.3-1.6-2.51-4-3.65-7.2-.97-2.88-2.29-6.66-3.95-11.34-1.66-4.68-3.48-9.96-5.47-15.84-1.99-5.88-4.03-11.98-6.14-18.3-1.77-5.31-3.47-10.51-5.12-15.65,2.16-2.99.97-8.09-1.88-8.09-4.76,0-7.21,4.38-7.21,8.26,0,2.16-.63,4.13-1.7,6.96-2.09,5.5-3.95,10.62-5.77,15.3-1.82,4.68-3.59,9.18-5.29,13.5-1.7,4.32-3.51,8.72-5.41,13.2-1.9,4.48-3.99,9.28-6.26,14.4-1.3,2.96-2.84,5.08-4.62,6.36-1.78,1.28-3.73,2.24-5.83,2.88-1.3.4-2.29.82-2.98,1.26-.69.44-1.03.94-1.03,1.5,0,.48.32.86.97,1.14.65.28,1.5.42,2.55.42,2.02,0,4.29-.12,6.81-.36,2.51-.24,5.1-.36,7.78-.36,2.27,0,4.42.04,6.44.12,2.02.08,3.56.12,4.62.12s1.9-.1,2.55-.3c.65-.2.97-.54.97-1.02,0-.88-1.34-1.68-4.01-2.4-1.94-.48-3.61-1.3-4.98-2.46-1.38-1.16-2.07-2.62-2.07-4.38,0-.4.2-1.36.61-2.88.4-1.52.89-3.24,1.46-5.16.57-1.92,1.13-3.74,1.7-5.46.57-1.72.97-2.98,1.22-3.78.32-.88.67-1.46,1.03-1.74.36-.28.71-.42,1.03-.42h22.97c1.13,0,1.92.06,2.37.18.44.12.75.5.91,1.14.65,2,1.34,4.3,2.07,6.9.73,2.6,1.36,5.04,1.88,7.32.53,2.28.79,4.02.79,5.22,0,1.28-.57,2.4-1.7,3.36-1.14.96-3.04,1.64-5.71,2.04-1.05.16-1.99.44-2.79.84-.81.4-1.22.88-1.22,1.44,0,.48.32.84.97,1.08.65.24,1.5.36,2.55.36.97,0,2.15-.02,3.52-.06,1.38-.04,2.88-.06,4.5-.06h4.74c1.86,0,3.89.06,6.08.18,2.19.12,4.25.24,6.2.36,1.94.12,3.48.18,4.62.18,1.05,0,1.9-.08,2.55-.24.65-.16.97-.48.97-.96,0-.56-.32-1.1-.97-1.62ZM178.04,183.21h-18.84c-.81,0-1.44-.04-1.88-.12-.45-.08-.67-.32-.67-.72,0-.16.08-.48.24-.96l11.06-29.4c.49-1.36.81-2.04.97-2.04.24,0,.61.72,1.09,2.16l9.48,29.28c.08.24.14.46.18.66.04.2.06.38.06.54,0,.4-.57.6-1.7.6Z"/>
  <path class="st0" d="M427.67,214.05c-2.84,0-5.35-.2-7.54-.6-2.19-.4-4.34-1.52-6.44-3.36-3.81-3.44-7.09-6.76-9.84-9.96-2.75-3.2-5.29-6.48-7.6-9.84-2.31-3.36-4.72-6.92-7.23-10.68-.24-.4-.38-.74-.42-1.02-.04-.28.1-.46.42-.54,2.27-1.12,4.5-2.56,6.68-4.32,2.19-1.76,4.01-3.94,5.47-6.54,1.46-2.6,2.19-5.7,2.19-9.3,0-6.56-2.33-11.48-6.99-14.76-4.66-3.28-11.45-4.92-20.36-4.92-2.35,0-4.27.04-5.77.12-1.5.08-2.86.18-4.07.3-1.22.12-2.59.18-4.13.18-1.05,0-1.95,0-2.73-.03-1.1-2.36-3.24-4.03-4.99-4.03-1.31,0-2.9,1.87-3.17,3.94h-1.02s-.09,0-.14,0c.12-1.89,1.17-3.84,3.31-4.87,0-1.82-1.61-3.86-3.92-3.63-1.44.14-2.27.9-3.17,3.07-.44,1.06-2.18,1.42-3.69-.04-2.29-2.2-7.88-14.1-11.03-21.46-1.39-3.23-6.26-1.74-4.72,1.31,2.4,4.78,8.02,15.45,9.05,17.53,1.22,2.46-.38,4.19-2.22,4.19-1.05,0-2.3-.75-2.9-1.48-.71-.86-1.46-1.93-3.3-1.93-2.08,0-3.24,1.92-2.98,3.76,2.29.24,3.48,1.75,3.78,3.6-.23,0-.48,0-.74.02-.13,0-.28,0-.42,0-.4-1.54-1.72-2.79-4.12-2.82-1.34-.02-3.19,1.03-4.62,3-1.9,0-10.77.1-13.01.11-.97-2.05-2.94-4.16-5.33-4.16-1.37,0-3.18,1.35-3.89,4.09-.43,0-.87-.02-1.31-.03.57-2.57,2.26-4.31,4.95-5.15.15-2.19-1.12-4.38-4.54-4.12-1.57.12-2.71,1.31-3.34,2.57-.68,1.37-1.71,2.28-2.5,2.3-1.8.06-2.52-1.25-1.21-4.14,2.37-4.21,7.63-13.42,12.62-22.1,5.26-8.4,10.26-17.32,18.67-17.58-7.49,1.46-14.62,12.12-8.94,21.26,1.05-5,3.94-9.76,7.89-10.51-2.63,3.01-1.84,8.14.53,9.98.79-3.94,2.89-6.83,6.04-8.14-1.57,2.1-2.36,4.46-2.36,7.35,6.73-8.86,17.98-.67,23.4-.73,4.6-.05,8.4-2.68,10.49-6.63,7.1,1.84,16.23-1.81,19.58-9.85,2.61-6.27.74-14.18-2.49-19.32,1.84,1.58,5.77,4.99,5.77,4.99l12.07-5.78s7.02,6.74,17.39,5.96c1.84-1.47,2.29-4.31.74-5.96-1.31-1.39-4.13-1.51-7.62-1.05.07.15-8.95-5.02-12.35-7.09-1.36-.83-3.48.5-5.7,2.11-1.67,1.21-4.19,1.28-5.5.55-1.25-.69-1.02-1.79-.08-1.87.94-.08,9.4-.55,11.8-6.83,4.53,1.01,8.19.32,11.83-2.1,1.18,2.27,3.2,3.01,5.52,2.89,1.61-2.51,1.55-5.33.11-7.55-4.34-.06-6.02-4.85-4.53-7.43-1.72-1.2-4.71-.11-7.7,2.61-3.8,3.48-8.98,2.47-10.4-1.64-1.25-3.62.68-6.85,3.73-7.52,1.56-.34,1.92-1.28.92-2.13-4.79-4.06-11.74-4.83-18.3-3.24-11.11,2.69-16.9,10.74-16.87,22.43,5.32-8.4,8.97-11.32,14.65-11.53,4.13-.16,7.23,2.79,7.15,6.01-.56-2.73-3.41-4.48-6.76-4.35-5.26.2-8.77,3.61-11.99,8.23-3.67,5.26-6.56,8.49-13.12,9.02-4.31.35-6.09-3.62-5.23-5.53-.27,1.72,1.35,3.37,3.52,2.81,2.01-.52,2.86-2.25,2.19-4.23-.61-1.81-2.41-2.66-4.9-2.1-2.12.48-4.56,2.93-4.09,7.14.35,3.14,3.16,6.72,6.91,7.41,3.73.68,6.19-.23,8.55-1.04,2.16-.74,3.85-.17,4.91-.53,1.18-.4.88-2.01,2.1-2.61,1.85-.91,3.32.72,4.84-.13,1.28-.72.98-2.84,1.91-3.48,1.24-.84,2.25-.17,3.44-.58.83-.28,2.07-1.03,2.18-2.9.01,2.07-.66,2.84-1.58,3.42-1.14.71-2.1.1-3.29.98-1.06.78-.51,3-2.22,3.72-1.72.72-3.3-.7-4.71-.05-.95.44-.78,2.27-1.86,2.68-1.08.41-2-.07-2.91.33,5.35,2.18,10.01,8.34,10.27,13.6,0,4.47-2.63,6.31-7.88,6.05-7.89-.26-16.03-6.31-24.44-17.87-8.41-11.27-19.71-19.42-33.64-24.15,1.9-14.49,8.21-26.88,15.86-37.32-5.07-5.34-16.4-5.65-24.83-1.84-2.73,1.23-5.03,5.78-2.89,9.2-5.76.52-8.09,6.14-5.49,11.3-4.91,2.7-6.04,9.2-3.16,13.14-3.69,2.67-3.59,8.31.87,10.75-3.99,4.18-2.06,9.72,3.59,11.04-4.01.32-7.17-3.54-7.29-7.67-6.18,2.09-12.15.69-16.21-2.66-3.26-2.68-7.68-4.71-13.8-4.9-14.02-.43-33.96,7.63-49.96,22.59-7.28,6.81-16.95,16.89-25.29,25.61-8.08,8.45-16.93,15.56-25.07,20.03-.07,1.82.28,4.23,1.03,5.87,12.2-5.93,24.81-15.26,38.61-28.13,15.24-14.23,24.22-20.51,36.79-22.07-.37,4.71,5.83,7.9,10.25,4.99l.53,5.02c-6.45-2.99-14.06-1.83-18.4,3.15-2.61-2.44-6.18-2.91-10.81-1.3,1.35,8.53-2.46,16.89-4.99,24.16-2.83,8.1-5.03,14.66-7.35,20.78-1.29,3.42-2.7,4.97-4.81,5-2.27.03-2.88-4.02-5.68-4.21-2.63-.17-4.55,1.26-4.59,3,3.22,2,3.66,7.12,1.18,10.17h22.15c5.21,0,9.6,1.23,12.42,4.05,1.47,1.47,2.73,3.14,3.95,4.86,1.22,1.72,2.11,3.06,2.67,4.02l14.22,23.04c.32.56.91,1.78,1.76,3.66.85,1.88,1.28,3.62,1.28,5.22v17.76c0,2.88-.81,5.14-2.43,6.78-1.62,1.64-3.97,2.74-7.05,3.3-1.38.24-2.39.52-3.04.84-.65.32-.97.76-.97,1.32,0,.48.32.82.97,1.02.65.2,1.5.3,2.55.3,2.19,0,4.07-.06,5.65-.18,1.58-.12,3.12-.22,4.62-.3,1.5-.08,3.26-.12,5.29-.12,1.86,0,3.44.04,4.74.12,1.3.08,2.65.18,4.07.3,1.42.12,3.22.18,5.41.18,1.05,0,1.9-.1,2.55-.3.65-.2.97-.54.97-1.02,0-.56-.32-1-.97-1.32-.65-.32-1.66-.6-3.04-.84-3-.56-5.35-1.7-7.05-3.42-1.7-1.72-2.55-3.94-2.55-6.66v-18.24c0-1.6.04-2.86.12-3.78.08-.92.32-1.9.73-2.94.4-1.04,1.13-2.4,2.19-4.08,1.38-2.24,2.55-4.14,3.52-5.7.97-1.56,1.92-3.06,2.86-4.5.93-1.44,1.94-3,3.04-4.68s2.45-3.76,4.07-6.24c2.19-3.28,3.74-5.35,5.11-7.12,2.74-3.52,7.69-5.33,13.54-5.33,3.86,0,7.27,1.17,9.36,3.57,1.1,1.27,1.76,3.47,1.76,6.35v53.77c0,2.88-.73,4.96-2.19,6.24-1.46,1.28-3.73,2.2-6.81,2.76-2.67.48-4.01,1.2-4.01,2.16,0,.48.32.82.97,1.02.65.2,1.5.3,2.55.3,2.19,0,3.97-.06,5.35-.18,1.38-.12,2.71-.24,4.01-.36,1.3-.12,2.84-.18,4.62-.18,3.08,0,6.06.04,8.93.12,2.88.08,5.81.16,8.81.24,3,.08,6.16.16,9.48.24,3.32.08,6.93.12,10.82.12.49,0,.83-.2,1.03-.6.2-.4.43-.88.67-1.44.49-1.12,1.03-2.64,1.64-4.56s1.11-3.78,1.52-5.58c.41-1.8.61-3.06.61-3.78,0-.48-.12-.86-.37-1.14-.24-.28-.57-.46-.97-.54-.41-.08-.77.04-1.09.36-.33.32-.61.72-.85,1.2-1.3,2.4-2.45,4.32-3.46,5.76-1.01,1.44-2.17,2.6-3.46,3.48-1.3.8-2.82,1.34-4.56,1.62-1.74.28-3.91.42-6.5.42h-8.99c-2.76,0-4.78-.58-6.08-1.74-1.3-1.16-1.94-3.26-1.94-6.3v-23.04c0-1.36.34-2.22,1.03-2.58.69-.36,1.72-.54,3.1-.54h11.3c1.62,0,2.83.44,3.65,1.32.81.88,1.46,2.24,1.94,4.08.65,2.56,1.58,3.84,2.79,3.84.49,0,.79-.2.91-.6.12-.4.18-.88.18-1.44,0-.32-.02-1.08-.06-2.28-.04-1.2-.08-2.46-.12-3.78-.04-1.32-.06-2.38-.06-3.18,0-.64.04-1.56.12-2.76.08-1.2.14-2.36.18-3.48.04-1.12.06-1.84.06-2.16,0-.64-.18-1.12-.55-1.44-.37-.32-.71-.48-1.03-.48-.97,0-1.7.88-2.19,2.64-.57,2.24-1.3,3.78-2.19,4.62-.89.84-2.51,1.26-4.86,1.26h-12.03c-.57,0-1.08-.26-1.52-.78-.45-.52-.67-1.14-.67-1.86v-25.44c0-2.19,1.76-3.84,4.38-3.84h15.92c1.54,0,3,.22,4.38.66,1.38.44,2.63,1.3,3.77,2.58.57.56,1.05,1.46,1.46,2.7.4,1.24.81,2.54,1.21,3.9.16.4.32.7.49.9.16.2.44.3.85.3s.79-.12,1.15-.36c.37-.24.55-.72.55-1.44,0-1.6-.2-3.5-.61-5.7-.3-1.63-.6-3.29-.9-4.95h13.28c4,0,6.78.53,8.25,1.48,1.58,1.02,2.49,2.51,2.77,4.07.28,1.56.43,3.86.43,6.9v51.12c0,2.96-.71,5.08-2.13,6.36-1.42,1.28-3.67,2.2-6.75,2.76-2.67.48-4.01,1.2-4.01,2.16,0,.48.32.82.97,1.02.65.2,1.5.3,2.55.3,2.19,0,4.07-.08,5.65-.24,1.58-.16,3.16-.3,4.74-.42,1.58-.12,3.38-.18,5.41-.18,1.54,0,2.77.06,3.71.18.93.12,1.98.26,3.16.42,1.17.16,2.86.24,5.04.24,1.05,0,1.9-.1,2.55-.3.65-.2.97-.54.97-1.02,0-.56-.33-1-.97-1.32-.65-.32-1.66-.6-3.04-.84-3-.56-5.1-1.78-6.32-3.66-1.21-1.88-1.82-4.1-1.82-6.66v-21.12c0-.72.14-1.32.42-1.8.28-.48.75-.68,1.4-.6,1.13.08,2.57.3,4.31.66,1.74.36,3.5.98,5.29,1.86,2.27,1.12,4.01,2.68,5.23,4.68,2.83,4.48,5.25,8.16,7.23,11.04,1.98,2.88,3.87,5.42,5.65,7.62,1.78,2.2,3.65,4.5,5.59,6.9,1.46,1.68,3.04,3,4.74,3.96,1.7.96,3.56,1.62,5.59,1.98,2.02.36,4.17.54,6.44.54,1.05,0,2.35-.1,3.89-.3,1.54-.2,2.92-.6,4.13-1.2,1.21-.6,1.82-1.5,1.82-2.7,0-.88-.61-1.32-1.82-1.32ZM258.01,149.43c-.32,1-.89,2.18-1.7,3.54-2.03,3.6-3.77,6.68-5.23,9.24-1.46,2.56-3.12,5.24-4.98,8.04-1.05,1.68-1.86,2.86-2.43,3.54-.57.68-1.09,1.02-1.58,1.02-.65,0-1.78-1.52-3.4-4.56,0,0-10.02-18.19-11.18-20.4-1.53-2.91-1.5-4.83-.6-6.31s2.86-2.06,5.99-2.06h5.79c-.03-3.91-1.8-6.06-4.42-6.07-1.94,0-3.6,1.31-4.97,3.51h-15.12c-1.27-2.11-3.32-3.54-4.67-3.62-1.9-.11-3.11,1.79-3.71,3.62h-1.71c.63-2.62,2.23-4.64,4.68-5.12-1.05-1.81-2.37-2.7-4.2-2.86-3.03-.26-4.1,2.87-7.07,2.15-1.28-.31-1.6-1.89-1.34-4.79,1.32-11.31,7.1-21.57,13.14-31.83,3.04,1.59,6.94.37,8.44-3.42,6.1-1.61,13.52,1.72,12.09,9.99,3.45-.99,5.18-3.1,5.78-7.36,1.7,2.94,2.64,6.65,1.05,10.77,3.41-2.63,5.77-6.04,6.55-10.25,2.13,3.31,3.11,6.34,2.64,10.25,2.86-1.32,4.84-5.13,4.84-10.12,0-18.34,8.87-25.54,15.11-29.01-5.92,3.4-11.38,11.47-12.62,20.2,5.52,2.89,10.52,2.63,15.25-1.05,3.68,4.47,7.62,5.26,11.83,2.63,1.96,4.28,9.6,4.78,11.3-1.56,13.45-3.04,13.26-15.26,10.78-22.85,4.49,10.73,1.92,20.87-8.94,24.94-1.67,2.97-1.58,7.29-.11,9.64-3.18,3.75-4.43,9.64-5.43,19.53-.29,2.89-2.35,8.17-4.72,12.64-1.31,2.37-3.16,3.42-4.98,3.42-.26-5.26-8.65-4.79-8.05-.41,3.34-.27,4.97,1.58,5.01,4.22-.11,0-.92,0-1.24,0-.1-1.82-1.12-3.29-3.45-3.29-1.86,0-3.36,1.91-4.31,3.59-.44.01-1.31.02-1.3,0,1.43-2.27.86-3.83.2-4.11-1.18.37-2.1,2.16-3.36,4.16-.5,0-.98,0-1.44,0,1.33-2.12,2.81-4.77,5.3-5.39-.5-1.28-2.78-2.69-4.76-2.55-1.57.11-2.65.86-3.12,1.66-.59,1-1.31,1.57-2.1,1.57-1.58.03-2.63-1.28-3.42-3.91l-9.2-27.86-3.14,4.46c1.31,4.2,2.88,8.39,4.19,12.33,1.31,4.21,2.76,8.47,4.2,12.64.75,2.18.53,3.22-1.05,3.42-1.27.16-2.63-.53-3.42-1.84-1.05-1.32-2.41-2.12-4.5-2.05-1.62.05-3.5,1.36-3.35,2.81,2.51.73,4.28,3.19,4.39,7.15h10.17c2.37,0,4.94.6,6.15,1.44,1.14.79,1.93,2.41,1.93,3.93,0,.72-.16,1.58-.49,2.58ZM383.86,175.05c-2.71,1.68-5.94,2.52-9.66,2.52-2.03,0-3.61-.2-4.74-.6-1.14-.4-1.7-1.6-1.7-3.6,0-4.8.02-8.9.06-12.3.04-3.4.1-6.1.18-8.1.16-4.16.65-7.06,1.46-8.7.81-1.64,2.51-2.46,5.1-2.46,5.1,0,8.93.82,11.48,2.46,2.55,1.64,4.25,3.82,5.1,6.54.85,2.72,1.28,5.72,1.28,9,0,3.04-.75,5.92-2.25,8.64-1.5,2.72-3.61,4.92-6.32,6.6Z"/>
  <path class="st0" d="M353.4,51.18c.19-8.01,5.13-13.68,9.47-16.29-1.01-1.77-1.54-2.95-1.89-4.91-5.61.52-11.36-1.66-14.93-5.56-.84,4.91,2.63,9.66,6.41,10.79-3.22,3.16-4.02,11.73.94,15.98Z"/>
  <path class="st0" d="M325.74,52.08c-1.83-4.22-5.46-5.79-7.63-9.44-1.24.93-1.05,2.63-1.05,2.63-2.88-3.41-6.17-3.2-9.73-7.1-.97.61-.61,2.56-.61,2.56l-5.17-3.34s-.62,1.89-1.03,3.48c-.41,1.6-.64,3.65-.64,3.65,12.39,3.72,25.58,11.05,38.97,30.93-3.85-6.39-6.83-15.31-5.78-20.48,0,0-1.52.35-1.81,2.1-.59-2.5-3.06-4.13-4.21-7.59-1.42.74-1.32,2.61-1.32,2.61Z"/>
  <path class="st0" d="M360.76,28.63s-.45-3,.28-5.68c-8.93.28-17.19-5.26-14.88-17.67-4.16,6.49-3.64,13.36.26,17.46,3.33,3.51,8.73,5.9,14.34,5.89Z"/>
  <path class="st0" d="M263.19,11.07c-2.45.45-4.47,1.84-5.78,3.68.55,2.53,2.19,5.01,5.26,7.1-2.89.79-4.99,2.37-6.31,4.74,1.05,2.63,2.52,4.32,4.44,5.64-2.03.79-4.01,1.87-5.49,4.09,1.01,2.54,2.63,5.06,4.99,6.84-1.72.35-3.98,2.04-4.99,3.42,6.41,5.32,12.64,9.05,21.18,4.91-3.66-2.06-4.45-8.73-.31-11.29-2.75-5.32-1.44-10.55,3.01-13.36-2.57-5.52.2-11.19,5.39-12.16-1.39-3.17.49-7.23,3.1-8.57h-27.64c.46,2.25,1.55,4.04,3.15,4.96Z"/>
  <path class="st0" d="M305.62,38.71c.06-1.67,1.63-2.54,1.63-2.54,0,0,1.03,1.67,1.93,1.84.91-6.21,3.57-11.62,9.12-15.38,6.88-4.66,10.59-9.73,10.85-14.16-5.79,0-9.99,0-12.89.26-4.75,5.23-11.39,16.87-14.19,27.52l3.55,2.46Z"/>
  <path class="st0" d="M234.25,135.41s.01,0,.02,0,.01,0,.02,0h-.03Z"/>
  <path class="st0" d="M406.64,50.92c2.66.48,5.18-1.85,5.67-5.43.28-2.06-.28-4.66-1.45-7.05-.18,2.95-1.83,4.27-4.2,4.73-3.59.69-3.58,7.1-.01,7.75Z"/>
  <path class="st0" d="M416.1,72.28c7.62.52,12.87-2.85,12.87-8.76,0-4.5-3.38-7.33-7.33-7.33-2.64,0-4.88,1.35-5.26,3.24,3.16-.3,5.35,1.14,5.23,4.09-.11,2.64-2.37,4.49-5.79,4.6-8.41.28-14.51-1.17-25.98-4.98,7.51,4.48,16.53,8.48,26.26,9.15Z"/>
  <path class="st0" d="M386.23,43.85c0,2.26,1.83,4.09,4.09,4.09s4.09-1.83,4.09-4.09-1.83-4.09-4.09-4.09-4.09,1.83-4.09,4.09Z"/>
  <path class="st0" d="M390.32,35.18c-5.68-11.16-16.95-13.01-27.98-12.29-.86,3.89.15,8.64,1.75,11.21,8.46-4.4,20.07-4.88,26.22,1.08Z"/>
  <path class="st0" d="M236.08,14.62c-2.89-2.88-3.06-7.64-1.53-9.84-15.5,5.24-38.24,6.06-61.83-4.77,23.7,17.78,47.2,18.42,63.35,14.62Z"/>
  <path class="st0" d="M37.31,33.93c3.58-1.27,5.95,1.27,6.59,3.68,6.86.26,9.12-6.18,6.12-10.48,4-2.03,3.06-9.42-2.61-9.46.48-6.21-4.09-9.72-10.24-7.62-1.8-4.1-6.18-4.73-9.2-1.58-5.75-2.77-13.89-.4-17.08,6.37,11.52-1.38,20.79,4.7,26.42,19.09Z"/>
  <path class="st0" d="M131.78,23.94c-1.01,5.29,4.5,9.8,11.04,7.36.48,3.69,3.67,5.35,7.3,4.7-.75-9.71,6.82-17.84,16.11-19.87,6.45-1.41,15.07-.85,21.39,4.47-5.51-8.7-14.31-12.16-25.23-10.84-9.02,1.08-11.75,4.58-21.67,6.74-10.88,2.37-17.9,1.04-23.66-5.65,0,9.01,5.39,13.39,14.72,13.11Z"/>
  <path class="st0" d="M126.23,122c-8.91,1.84-17.6,2.36-25.74,1.05-23.12-3.16-45.21-24.46-47.05-46.52-2.1-28.4,15.78-50.49,43.13-50.49,21.29,0,38.38,16.83,39.17,36.03.26,11.57-5.01,24.69-18.93,30.75-6.06,2.89-10.83,1.08-12.66-1.57-1.78-2.58-.89-6.29,1.41-6.86,2.3-.56,4.88.85,4.16,3.67,8.14,1.83,11.15-5.83,7.07-10.48,2.81-3.89-.57-7.22-3.67-7.32-3.1-.09-4.91,2.62-6.03,5.48-1.4,3.6-6.98,1.25-4.07-3.23,1.72-2.64,3.37-1.6,6.57-3.8,3.01-2.07,2.91-7.93-1.49-8.48,1.63-4.62-2.78-8.76-7.34-5.52-2.22-3.52-6.44-1.68-7.6,1.05-1.28,3.01-.03,5.17-.66,7.01-1.13,3.32-5.13,1.97-4.51-1.72.68-4.01,3.72-3.38,3.88-8.7.1-3.44-3.07-7.2-7.67-5.28-2.12-6.58-12.07-4.71-12.07,2.35,3.19-3.06,7.51.08,7.88,6.98.65,11.89-3.03,20.3,1.69,30.28,4.85,10.25,13.18,13.25,22.73,13.98,17.02,1.3,31.79-13.29,34.57-31.14.11-.73.83-1.2,1.53-.96.55.18.86.73.78,1.3-1,7.8-1.71,17.38-2.71,25.18-5.05-4.13-13.84.97-12.35,9.04-7.62,4.08-5.5,14.41,1.31,16.31-.71,5.87,3.15,10.53,9.18,9.47.03,4.96,5.17,7.9,10.51,5.24,7.54,5.39,16.56.26,16.72-6.63.09-3.88-2.16-6.82-5.6-6.98-2.1-.09-4.23,1.45-4.23,3.53,1.93-2.2,5.2-.97,5.19,2.06,0,2.98-1.74,4.55-4.97,4.71-6.62.32-9.48-6.66-10.54-11.92-1.58-8.68-1.95-17.7-.92-27.46.96-9.04,1.62-15.39,2.48-23.13.24-2.2-.89-4.31-2.85-5.33-1.64-.85-2.74-2.44-3-4.27-.97-6.74-3.07-12.61-6.7-18.59,14.82,17.53,23.38,24.84,38.28,25.01,12.96.14,25.3-8.91,25.3-25.38,0-15.59-12.84-22.94-23.81-22.59-11.31.36-19.31,7.67-19.55,18.13-.19,8.14,7.42,10.8,3.45,18.82,3.12,4.1,8.38,4.23,10.99-.13,4.52,5.3,12.85,1.48,12.08-5.53,7.15-2.82,5.96-11.95,1.05-14.22,3.47-7.82-5.24-12.06-8.65-8.64,2.36.76,2.29,4.61-.1,5.59-2.63,1.08-4.66-.88-4.92-3.78-.26-2.89,2.25-5.38,6.69-6.07,7.52-1.17,19.35,5.67,19.35,18.47,0,13.46-10.08,22.16-21.72,21.89-12.77-.3-18.99-5.53-31.62-19.95-13.15-15-24.73-20.71-40.6-21.22-23.08-.74-50.89,13.95-49.95,54.57.03,1.4-1.27,2.45-2.63,2.12-1-.23-1.69-1.15-1.65-2.17.23-5.4.44-11.66.44-18.99,0-7.89-1.3-14.46-3.91-19.45-1.31-2.86-3.94-1.81-2.89.56,2.37,6.31,3.42,13.39,3.42,20.99,0,5.56-.28,10.98-.74,16.27-.29,3.36,1.88,6.43,5.16,7.23,2.32.57,4.17,2.31,4.87,4.59,5.42,17.62,24.2,33.16,39.62,38.24,1.15.38,1.62,1.74.95,2.74-.44.66-1.25.95-2.01.74-4.09-1.15-8.4-2.12-12.92-3.31-4.99-1.05-9.73-2.1-14.2-3.42-3.94-.79-6.19-3.92-3.2-8.2,3.05-4.37-2.25-10.52-7.32-7.02.09-6.83-7.19-9.51-11.53-3.93-.05-3.16-4.38-4.31-6.88-2.57-2.5,1.74-2.61,5.06-.53,8.67,1.91,3.32-4.65,4.39-3.88-.12.66-3.85-1.35-6.42-3.29-7.12-1.94-.7-5.23-.61-7,2.46-2.95-3.07-7.52-1.97-8.15,2.62-5.47-.68-8.89,3.2-6.54,8.39-5.12.33-5.84,7.57-1.31,9.47-.85,5.63,2.97,10.09,7.14,10.25,4.95.19,7.55-1.85,7.55-5.77-3.15,3.14-7.65,1.04-8.33-2.46-.69-3.5,1.91-8.58,10.43-8.6,12.57-.03,51.47,9.91,69.15,14.43,2.55.65,5.24-.25,6.88-2.29l.07-.08c1.53-1.91,3.93-2.82,6.34-2.52,8.83,1.1,17.51.51,24.86-1.28-.74-1.39-1-2.66-.86-4.55ZM87.58,75.69c.24-6.61,7.77-5.95,7.64.82-.12,6.51-2.79,11.54,3.25,18.34-5.95-1.5-11.29-8.21-10.9-19.16ZM169.62,39.22c4.47,1.84,3.42,7.88-1.58,7.88-6.59,0-9.99-12.09-6.85-19.19.26,5.52,2.9,9.46,8.43,11.3Z"/>
  <path class="st0" d="M236.69,16.09c-15.26,3.88-30.85,3.44-48.75-5.25,17.25,14.36,35.18,18.17,48.75,15.98-3.31-2.93-2.61-8.41,0-10.73Z"/>
  <path class="st0" d="M227.52,37.59c.05.99.77,2.39,2,3.21-7.26-.54-9.74,2-16.56,2.86.52,1.67,2.05,2.82,3.15,3.15-6.67.3-11.86,4.13-17.85,5.15.53.79,1.66,2.29,4.21,2.46-5,.14-8.79,4.78-14.18,7.13.54,1.06,1.88,1.85,2.89,1.58-5.2,1.4-8.97,5.36-13.14,6.3.4.98,1.92,2.16,3.94,1.84-4.51,1.85-7.57,6.56-12.61,8.4.58,1.22,1.73,1.88,2.89,1.84-3.38,5.05-4.45,10.81-18.68,25.02,4.43-3.24,10.55-9.29,15.83-14.65,6.2-6.29,11.93-12.86,16.71-17.65,15.65-15.68,31.46-26.11,51.98-28.92-1.19-2.38-.77-5.39.74-6.77,0,0-5.74,1.29-11.32-.95Z"/>
  <path class="st0" d="M239.56,15.29c-3.79,3.46-4.22,7.88.24,12.88-2.89,2.9-2.36,6.32,1.31,10.26-1.59.89-2.5,3.86-1.18,6.61,5.2-.74,9.94-.07,13.31.8,1.36-2.25,3.05-2.98,3.05-2.98-2.16-2.16-3.35-4.68-3.62-6.79.83-1.65,1.81-2.92,3.85-4.13-1.36-.92-2.79-3.36-3.38-5.54,1.23-2.35,2.56-3.89,4.93-5.14-2.03-2.22-3.15-4.6-3.53-7.21.92-1.78,2.41-3,5.06-4.2-4.37-5.4-14.18-7.33-22.96-5.58-1.84,3.67-.79,8.49,2.91,11.02Z"/>
  <path class="st0" d="M201.43,21.54c12.39,11.61,29.23,17,36.38,15.54,0,0-3.99-4.77-.33-8.76-9.8,1.79-22.94.45-36.05-6.79Z"/>
</svg>