<?xml version="1.0" encoding="UTF-8"?>
<svg xmlns="http://www.w3.org/2000/svg" version="1.1" viewBox="0 0 429.5 219.6">
  <!-- Generator: Adobe Illustrator 28.7.1, SVG Export Plug-In . SVG Version: 1.2.0 Build 142)  -->
  <g>
    <g id="Calque_1">
      <path d="M41.5,178.2c-2.7-2-5.5-3.8-8.3-5.5-3-1.8-5.8-3.6-8.4-5.4-2.6-1.8-4.7-3.6-6.3-5.6s-2.4-4.1-2.4-6.5.7-6,2-8,3.1-3.4,5.2-4.3,4.4-1.3,6.8-1.3c3.5,0,6.4,1.1,8.6,3.4s4.2,5.5,6,9.7c.2.5.6.9,1.3,1.2.7.3,1.4.5,2.1.5,1.2,0,1.8-.4,1.8-1.3,0-1.9-.3-4-.8-6.1-.6-2.2-1.1-4.1-1.6-5.8-.2-.6-.5-1.2-.9-1.8-.5-.6-1-1-1.6-1.2-1.3-.6-3-1.1-5.2-1.7-2.2-.6-4.7-.9-7.6-.9-5.7,0-10.4,1-14.2,2.9s-6.6,4.6-8.4,7.9c-1.9,3.3-2.8,7-2.8,11s1,7.1,3,9.8c2,2.7,4.6,5,7.7,7.1,3.1,2,6.2,4.1,9.4,6.1,2.9,1.8,5.4,3.4,7.4,4.9s3.6,3.3,4.7,5.3,1.6,4.7,1.6,8-.6,5.5-1.9,7.7c-1.3,2.2-3,3.9-5.2,5.1s-4.7,1.8-7.5,1.8-6.8-1.3-10-4-5.6-7-7.2-13.2c0-.5-.3-.8-.7-1s-.8-.3-1.2-.3c-.7,0-1.2.1-1.7.4-.5.3-.7.7-.7,1.3.2,1.7.3,3.8.4,6.4.1,2.6.4,4.6.8,6.2.2.5.4.9.7,1.3.3.4.6.8.9,1.1,2.3,1.8,4.8,3.3,7.7,4.3s6,1.5,9.4,1.5c5.4,0,10-1,14-2.9s7-4.7,9.2-8.2,3.3-7.7,3.3-12.4-.9-7.4-2.6-10.1-4-5.1-6.7-7.1h0Z"/>
      <path d="M122,201.2c-1,2.2-2,3.8-2.7,4.9-.8,1.1-1.9,2.4-3.6,3.7-3,2.4-5.4,3.1-9.5,3.1h-15.1c-4,0-6.5-.6-7.7-1.8s-1.7-3-1.7-5.5v-56.5c0-2.3,1.1-3.9,3.2-4.6s4.7-1.4,7.7-2c1.4-.2,2.4-.6,3-1,.7-.4,1-.9,1-1.4s-.3-.8-1-1-1.5-.3-2.6-.3c-2.2,0-4.1,0-5.6.1s-3,.1-4.5.2-3.2,0-5.2,0-3.3,0-4.5,0-2.5-.1-3.8-.2c-1.3,0-3.1-.1-5.3-.1s-1.9.1-2.5.3c-.7.2-1,.5-1,1,0,1.1,1.3,1.9,4,2.4,2,.3,3.6.7,4.6,1.1,1.1.4,1.8,1.1,2.2,2,.4.9.6,2.3.6,4.3v55.7c0,2.6-.8,4.6-2.6,5.8-1.7,1.2-4.9,2.4-7.3,2.8-1.8.3-2.7.8-2.7,2s1.4,1.6,3.4,1.4,7-.4,9.5-.5,4.8-.1,6.9-.1c3.1,0,6.2,0,9.4.1s6.5.1,9.9.2c3.4,0,7,.1,10.8.2,3.7,0,7.6.1,11.7.1s1.6-.7,1.7-2c.1-1.7.4-3.3.7-4.8.3-1.5.7-3.1,1.1-4.8.4-1.4,1-3.7,1.4-5.4.5-2,.2-2.6-.7-2.8-1.1-.2-1.8.6-3.2,3.4h0Z"/>
      <path d="M211.2,214.8c-.6-.5-1.7-.9-3-1.1-1.6-.3-3.1-.8-4.6-1.4s-2.8-1.8-4.1-3.4c-1.3-1.6-2.5-4-3.6-7.2-1-2.9-2.3-6.7-3.9-11.3s-3.5-10-5.5-15.8c-2-5.9-4-12-6.1-18.3-1.8-5.3-3.5-10.5-5.1-15.6,2.2-3,1-8.1-1.9-8.1-4.8,0-7.2,4.4-7.2,8.3s-.6,4.1-1.7,7c-2.1,5.5-3.9,10.6-5.8,15.3-1.8,4.7-3.6,9.2-5.3,13.5s-3.5,8.7-5.4,13.2c-1.9,4.5-4,9.3-6.3,14.4-1.3,3-2.8,5.1-4.6,6.4s-3.7,2.2-5.8,2.9c-1.3.4-2.3.8-3,1.3-.7.4-1,.9-1,1.5s.3.9,1,1.1c.6.3,1.5.4,2.6.4,2,0,4.3-.1,6.8-.4,2.5-.2,5.1-.4,7.8-.4s4.4,0,6.4.1,3.6.1,4.6.1,1.9-.1,2.6-.3c.6-.2,1-.5,1-1,0-.9-1.3-1.7-4-2.4-1.9-.5-3.6-1.3-5-2.5-1.4-1.2-2.1-2.6-2.1-4.4s.2-1.4.6-2.9c.4-1.5.9-3.2,1.5-5.2s1.1-3.7,1.7-5.5c.6-1.7,1-3,1.2-3.8.3-.9.7-1.5,1-1.7s.7-.4,1-.4h23c1.1,0,1.9,0,2.4.2.4.1.8.5.9,1.1.6,2,1.3,4.3,2.1,6.9.7,2.6,1.4,5,1.9,7.3.5,2.3.8,4,.8,5.2s-.6,2.4-1.7,3.4c-1.1,1-3,1.6-5.7,2-1.1.2-2,.4-2.8.8-.8.4-1.2.9-1.2,1.4s.3.8,1,1.1,1.5.4,2.6.4,2.1,0,3.5,0c1.4,0,2.9,0,4.5,0h4.7c1.9,0,3.9,0,6.1.2s4.2.2,6.2.4c1.9.1,3.5.2,4.6.2s1.9,0,2.6-.2c.6-.2,1-.5,1-1s-.3-1.1-1-1.6h0ZM178,183.2h-18.8c-.8,0-1.4,0-1.9-.1-.4,0-.7-.3-.7-.7s0-.5.2-1l11.1-29.4c.5-1.4.8-2,1-2,.2,0,.6.7,1.1,2.2l9.5,29.3c0,.2.1.5.2.7s0,.4,0,.5c0,.4-.6.6-1.7.6h0Z"/>
      <path d="M427.7,214.1c-2.8,0-5.4-.2-7.5-.6-2.2-.4-4.3-1.5-6.4-3.4-3.8-3.4-7.1-6.8-9.8-10-2.8-3.2-5.3-6.5-7.6-9.8s-4.7-6.9-7.2-10.7c-.2-.4-.4-.7-.4-1s.1-.5.4-.5c2.3-1.1,4.5-2.6,6.7-4.3,2.2-1.8,4-3.9,5.5-6.5,1.5-2.6,2.2-5.7,2.2-9.3,0-6.6-2.3-11.5-7-14.8s-11.5-4.9-20.4-4.9-4.3,0-5.8.1-2.9.2-4.1.3c-1.2.1-2.6.2-4.1.2s-2,0-2.7,0c-1.1-2.4-3.2-4-5-4s-2.9,1.9-3.2,3.9h-1.2c.1-1.9,1.2-3.8,3.3-4.9,0-1.8-1.6-3.9-3.9-3.6-1.4.1-2.3.9-3.2,3.1-.4,1.1-2.2,1.4-3.7,0-2.3-2.2-7.9-14.1-11-21.5-1.4-3.2-6.3-1.7-4.7,1.3,2.4,4.8,8,15.5,9,17.5,1.2,2.5-.4,4.2-2.2,4.2s-2.3-.8-2.9-1.5c-.7-.9-1.5-1.9-3.3-1.9s-3.2,1.9-3,3.8c2.3.2,3.5,1.8,3.8,3.6-.2,0-.5,0-.7,0h-.4c-.4-1.5-1.7-2.8-4.1-2.8-1.3,0-3.2,1-4.6,3-1.9,0-10.8.1-13,.1-1-2.1-2.9-4.2-5.3-4.2s-3.2,1.4-3.9,4.1c-.4,0-.9,0-1.3,0,.6-2.6,2.3-4.3,5-5.1.1-2.2-1.1-4.4-4.5-4.1-1.6.1-2.7,1.3-3.3,2.6-.7,1.4-1.7,2.3-2.5,2.3-1.8,0-2.5-1.2-1.2-4.1,2.4-4.2,7.6-13.4,12.6-22.1,5.3-8.4,10.3-17.3,18.7-17.6-7.5,1.5-14.6,12.1-8.9,21.3,1-5,3.9-9.8,7.9-10.5-2.6,3-1.8,8.1.5,10,.8-3.9,2.9-6.8,6-8.1-1.6,2.1-2.4,4.5-2.4,7.3,6.7-8.9,18-.7,23.4-.7,4.6,0,8.4-2.7,10.5-6.6,7.1,1.8,16.2-1.8,19.6-9.8,2.6-6.3.7-14.2-2.5-19.3,1.8,1.6,5.8,5,5.8,5l12.1-5.8s7,6.7,17.4,6c1.8-1.5,2.3-4.3.7-6-1.3-1.4-4.1-1.5-7.6-1.1,0,.2-9-5-12.4-7.1-1.4-.8-3.5.5-5.7,2.1-1.7,1.2-4.2,1.3-5.5.6-1.2-.7-1-1.8,0-1.9s9.4-.6,11.8-6.8c4.5,1,8.2.3,11.8-2.1,1.2,2.3,3.2,3,5.5,2.9,1.6-2.5,1.5-5.3.1-7.5-4.3,0-6-4.8-4.5-7.4-1.7-1.2-4.7-.1-7.7,2.6-3.8,3.5-9,2.5-10.4-1.6-1.2-3.6.7-6.8,3.7-7.5,1.6-.3,1.9-1.3.9-2.1-4.8-4.1-11.7-4.8-18.3-3.2-11.1,2.7-16.9,10.7-16.9,22.4,5.3-8.4,9-11.3,14.6-11.5,4.1-.2,7.2,2.8,7.1,6-.6-2.7-3.4-4.5-6.8-4.3-5.3.2-8.8,3.6-12,8.2-3.7,5.3-6.6,8.5-13.1,9-4.3.3-6.1-3.6-5.2-5.5-.3,1.7,1.4,3.4,3.5,2.8,2-.5,2.9-2.2,2.2-4.2-.6-1.8-2.4-2.7-4.9-2.1-2.1.5-4.6,2.9-4.1,7.1.4,3.1,3.2,6.7,6.9,7.4,3.7.7,6.2-.2,8.5-1,2.2-.7,3.9-.2,4.9-.5,1.2-.4.9-2,2.1-2.6,1.9-.9,3.3.7,4.8-.1,1.3-.7,1-2.8,1.9-3.5,1.2-.8,2.2-.2,3.4-.6.8-.3,2.1-1,2.2-2.9,0,2.1-.7,2.8-1.6,3.4-1.1.7-2.1,0-3.3,1-1.1.8-.5,3-2.2,3.7-1.7.7-3.3-.7-4.7,0-1,.4-.8,2.3-1.9,2.7s-2,0-2.9.3c5.4,2.2,10,8.3,10.3,13.6,0,4.5-2.6,6.3-7.9,6.1-7.9-.3-16-6.3-24.4-17.9-8.4-11.3-19.7-19.4-33.6-24.2,1.9-14.5,8.2-26.9,15.9-37.3-5.1-5.3-16.4-5.7-24.8-1.8-2.7,1.2-5,5.8-2.9,9.2-5.8.5-8.1,6.1-5.5,11.3-4.9,2.7-6,9.2-3.2,13.1-3.7,2.7-3.6,8.3.9,10.8-4,4.2-2.1,9.7,3.6,11-4,.3-7.2-3.5-7.3-7.7-6.2,2.1-12.1.7-16.2-2.7-3.3-2.7-7.7-4.7-13.8-4.9-14-.4-34,7.6-50,22.6-7.3,6.8-16.9,16.9-25.3,25.6-8.1,8.4-16.9,15.6-25.1,20,0,1.8.3,4.2,1,5.9,12.2-5.9,24.8-15.3,38.6-28.1,15.2-14.2,24.2-20.5,36.8-22.1-.4,4.7,5.8,7.9,10.2,5l.5,5c-6.4-3-14.1-1.8-18.4,3.2-2.6-2.4-6.2-2.9-10.8-1.3,1.4,8.5-2.5,16.9-5,24.2-2.8,8.1-5,14.7-7.4,20.8-1.3,3.4-2.7,5-4.8,5-2.3,0-2.9-4-5.7-4.2-2.6-.2-4.6,1.3-4.6,3,3.2,2,3.7,7.1,1.2,10.2h22.1c5.2,0,9.6,1.2,12.4,4.1,1.5,1.5,2.7,3.1,3.9,4.9s2.1,3.1,2.7,4l14.2,23c.3.6.9,1.8,1.8,3.7.9,1.9,1.3,3.6,1.3,5.2v17.8c0,2.9-.8,5.1-2.4,6.8s-4,2.7-7.1,3.3c-1.4.2-2.4.5-3,.8-.6.3-1,.8-1,1.3s.3.8,1,1,1.5.3,2.6.3c2.2,0,4.1,0,5.6-.2,1.6-.1,3.1-.2,4.6-.3s3.3-.1,5.3-.1,3.4,0,4.7.1,2.6.2,4.1.3c1.4.1,3.2.2,5.4.2s1.9-.1,2.5-.3,1-.5,1-1-.3-1-1-1.3-1.7-.6-3-.8c-3-.6-5.4-1.7-7.1-3.4s-2.6-3.9-2.6-6.7v-18.2c0-1.6,0-2.9.1-3.8s.3-1.9.7-2.9c.4-1,1.1-2.4,2.2-4.1,1.4-2.2,2.6-4.1,3.5-5.7s1.9-3.1,2.9-4.5c.9-1.4,1.9-3,3-4.7s2.5-3.8,4.1-6.2c2.2-3.3,3.7-5.4,5.1-7.1,2.7-3.5,7.7-5.3,13.5-5.3s7.3,1.2,9.4,3.6c1.1,1.3,1.8,3.5,1.8,6.4v53.8c0,2.9-.7,5-2.2,6.2s-3.7,2.2-6.8,2.8c-2.7.5-4,1.2-4,2.2s.3.8,1,1,1.5.3,2.5.3c2.2,0,4,0,5.4-.2s2.7-.2,4-.4c1.3-.1,2.8-.2,4.6-.2,3.1,0,6.1,0,8.9.1,2.9,0,5.8.2,8.8.2s6.2.2,9.5.2,6.9.1,10.8.1.8-.2,1-.6c.2-.4.4-.9.7-1.4.5-1.1,1-2.6,1.6-4.6s1.1-3.8,1.5-5.6.6-3.1.6-3.8-.1-.9-.4-1.1c-.2-.3-.6-.5-1-.5-.4,0-.8,0-1.1.4-.3.3-.6.7-.9,1.2-1.3,2.4-2.5,4.3-3.5,5.8-1,1.4-2.2,2.6-3.5,3.5-1.3.8-2.8,1.3-4.6,1.6s-3.9.4-6.5.4h-9c-2.8,0-4.8-.6-6.1-1.7s-1.9-3.3-1.9-6.3v-23c0-1.4.3-2.2,1-2.6s1.7-.5,3.1-.5h11.3c1.6,0,2.8.4,3.6,1.3.8.9,1.5,2.2,1.9,4.1.6,2.6,1.6,3.8,2.8,3.8s.8-.2.9-.6c.1-.4.2-.9.2-1.4s0-1.1,0-2.3,0-2.5-.1-3.8c0-1.3,0-2.4,0-3.2s0-1.6.1-2.8.1-2.4.2-3.5c0-1.1,0-1.8,0-2.2,0-.6-.2-1.1-.5-1.4s-.7-.5-1-.5c-1,0-1.7.9-2.2,2.6-.6,2.2-1.3,3.8-2.2,4.6s-2.5,1.3-4.9,1.3h-12c-.6,0-1.1-.3-1.5-.8-.5-.5-.7-1.1-.7-1.9v-25.4c0-2.2,1.8-3.8,4.4-3.8h15.9c1.5,0,3,.2,4.4.7s2.6,1.3,3.8,2.6c.6.6,1,1.5,1.5,2.7.4,1.2.8,2.5,1.2,3.9.2.4.3.7.5.9.2.2.4.3.9.3s.8-.1,1.1-.4c.4-.2.5-.7.5-1.4,0-1.6-.2-3.5-.6-5.7-.3-1.6-.6-3.3-.9-4.9h13.3c4,0,6.8.5,8.2,1.5,1.6,1,2.5,2.5,2.8,4.1.3,1.6.4,3.9.4,6.9v51.1c0,3-.7,5.1-2.1,6.4s-3.7,2.2-6.8,2.8c-2.7.5-4,1.2-4,2.2s.3.8,1,1,1.5.3,2.5.3c2.2,0,4.1,0,5.6-.2s3.2-.3,4.7-.4,3.4-.2,5.4-.2,2.8,0,3.7.2c.9.1,2,.3,3.2.4,1.2.2,2.9.2,5,.2s1.9-.1,2.5-.3,1-.5,1-1-.3-1-1-1.3c-.6-.3-1.7-.6-3-.8-3-.6-5.1-1.8-6.3-3.7-1.2-1.9-1.8-4.1-1.8-6.7v-21.1c0-.7.1-1.3.4-1.8s.8-.7,1.4-.6c1.1,0,2.6.3,4.3.7s3.5,1,5.3,1.9c2.3,1.1,4,2.7,5.2,4.7,2.8,4.5,5.2,8.2,7.2,11,2,2.9,3.9,5.4,5.6,7.6s3.6,4.5,5.6,6.9c1.5,1.7,3,3,4.7,4,1.7,1,3.6,1.6,5.6,2,2,.4,4.2.5,6.4.5s2.4-.1,3.9-.3,2.9-.6,4.1-1.2c1.2-.6,1.8-1.5,1.8-2.7s-.6-1.3-1.8-1.3h0ZM258,149.4c-.3,1-.9,2.2-1.7,3.5-2,3.6-3.8,6.7-5.2,9.2-1.5,2.6-3.1,5.2-5,8-1.1,1.7-1.9,2.9-2.4,3.5-.6.7-1.1,1-1.6,1s-1.8-1.5-3.4-4.6c0,0-10-18.2-11.2-20.4-1.5-2.9-1.5-4.8-.6-6.3s2.9-2.1,6-2.1h5.8c0-3.9-1.8-6.1-4.4-6.1-1.9,0-3.6,1.3-5,3.5h-15.1c-1.3-2.1-3.3-3.5-4.7-3.6-1.9-.1-3.1,1.8-3.7,3.6h-1.7c.6-2.6,2.2-4.6,4.7-5.1-1.1-1.8-2.4-2.7-4.2-2.9-3-.3-4.1,2.9-7.1,2.1-1.3-.3-1.6-1.9-1.3-4.8,1.3-11.3,7.1-21.6,13.1-31.8,3,1.6,6.9.4,8.4-3.4,6.1-1.6,13.5,1.7,12.1,10,3.4-1,5.2-3.1,5.8-7.4,1.7,2.9,2.6,6.7,1.1,10.8,3.4-2.6,5.8-6,6.6-10.2,2.1,3.3,3.1,6.3,2.6,10.2,2.9-1.3,4.8-5.1,4.8-10.1,0-18.3,8.9-25.5,15.1-29-5.9,3.4-11.4,11.5-12.6,20.2,5.5,2.9,10.5,2.6,15.2-1.1,3.7,4.5,7.6,5.3,11.8,2.6,2,4.3,9.6,4.8,11.3-1.6,13.5-3,13.3-15.3,10.8-22.8,4.5,10.7,1.9,20.9-8.9,24.9-1.7,3-1.6,7.3-.1,9.6-3.2,3.8-4.4,9.6-5.4,19.5-.3,2.9-2.4,8.2-4.7,12.6-1.3,2.4-3.2,3.4-5,3.4-.3-5.3-8.6-4.8-8-.4,3.3-.3,5,1.6,5,4.2h-1.2c-.1-1.8-1.1-3.3-3.5-3.3s-3.4,1.9-4.3,3.6c-.4,0-1.3,0-1.3,0,1.4-2.3.9-3.8.2-4.1-1.2.4-2.1,2.2-3.4,4.2h-1.4c1.3-2.1,2.8-4.8,5.3-5.4-.5-1.3-2.8-2.7-4.8-2.6-1.6.1-2.6.9-3.1,1.7-.6,1-1.3,1.6-2.1,1.6-1.6,0-2.6-1.3-3.4-3.9l-9.2-27.9-3.1,4.5c1.3,4.2,2.9,8.4,4.2,12.3,1.3,4.2,2.8,8.5,4.2,12.6.8,2.2.5,3.2-1.1,3.4-1.3.2-2.6-.5-3.4-1.8-1.1-1.3-2.4-2.1-4.5-2.1-1.6,0-3.5,1.4-3.4,2.8,2.5.7,4.3,3.2,4.4,7.1h10.2c2.4,0,4.9.6,6.1,1.4,1.1.8,1.9,2.4,1.9,3.9s-.2,1.6-.5,2.6h0ZM383.9,175.1c-2.7,1.7-5.9,2.5-9.7,2.5s-3.6-.2-4.7-.6c-1.1-.4-1.7-1.6-1.7-3.6,0-4.8,0-8.9,0-12.3,0-3.4.1-6.1.2-8.1.2-4.2.6-7.1,1.5-8.7s2.5-2.5,5.1-2.5c5.1,0,8.9.8,11.5,2.5,2.5,1.6,4.2,3.8,5.1,6.5.9,2.7,1.3,5.7,1.3,9s-.8,5.9-2.2,8.6-3.6,4.9-6.3,6.6h0Z"/>
      <path d="M353.4,51.2c.2-8,5.1-13.7,9.5-16.3-1-1.8-1.5-3-1.9-4.9-5.6.5-11.4-1.7-14.9-5.6-.8,4.9,2.6,9.7,6.4,10.8-3.2,3.2-4,11.7.9,16h0Z"/>
      <path d="M325.7,52.1c-1.8-4.2-5.5-5.8-7.6-9.4-1.2.9-1,2.6-1,2.6-2.9-3.4-6.2-3.2-9.7-7.1-1,.6-.6,2.6-.6,2.6l-5.2-3.3s-.6,1.9-1,3.5c-.4,1.6-.6,3.7-.6,3.7,12.4,3.7,25.6,11,39,30.9-3.9-6.4-6.8-15.3-5.8-20.5,0,0-1.5.3-1.8,2.1-.6-2.5-3.1-4.1-4.2-7.6-1.4.7-1.3,2.6-1.3,2.6h0Z"/>
      <path d="M360.8,28.6s-.5-3,.3-5.7c-8.9.3-17.2-5.3-14.9-17.7-4.2,6.5-3.6,13.4.3,17.5,3.3,3.5,8.7,5.9,14.3,5.9Z"/>
      <path d="M263.2,11.1c-2.5.4-4.5,1.8-5.8,3.7.5,2.5,2.2,5,5.3,7.1-2.9.8-5,2.4-6.3,4.7,1,2.6,2.5,4.3,4.4,5.6-2,.8-4,1.9-5.5,4.1,1,2.5,2.6,5.1,5,6.8-1.7.3-4,2-5,3.4,6.4,5.3,12.6,9,21.2,4.9-3.7-2.1-4.5-8.7-.3-11.3-2.8-5.3-1.4-10.5,3-13.4-2.6-5.5.2-11.2,5.4-12.2-1.4-3.2.5-7.2,3.1-8.6h-27.6c.5,2.2,1.5,4,3.1,5h0Z"/>
      <path d="M305.6,38.7c0-1.7,1.6-2.5,1.6-2.5,0,0,1,1.7,1.9,1.8.9-6.2,3.6-11.6,9.1-15.4,6.9-4.7,10.6-9.7,10.9-14.2-5.8,0-10,0-12.9.3-4.8,5.2-11.4,16.9-14.2,27.5l3.5,2.5h0Z"/>
      <path d="M234.2,135.4h0,0Z"/>
      <path d="M406.6,50.9c2.7.5,5.2-1.8,5.7-5.4.3-2.1-.3-4.7-1.5-7-.2,3-1.8,4.3-4.2,4.7-3.6.7-3.6,7.1,0,7.8h0Z"/>
      <path d="M416.1,72.3c7.6.5,12.9-2.8,12.9-8.8s-3.4-7.3-7.3-7.3-4.9,1.3-5.3,3.2c3.2-.3,5.4,1.1,5.2,4.1-.1,2.6-2.4,4.5-5.8,4.6-8.4.3-14.5-1.2-26-5,7.5,4.5,16.5,8.5,26.3,9.1h0Z"/>
      <path d="M386.2,43.8c0,2.3,1.8,4.1,4.1,4.1s4.1-1.8,4.1-4.1-1.8-4.1-4.1-4.1-4.1,1.8-4.1,4.1Z"/>
      <path d="M390.3,35.2c-5.7-11.2-17-13-28-12.3-.9,3.9.1,8.6,1.8,11.2,8.5-4.4,20.1-4.9,26.2,1.1h0Z"/>
      <path d="M236.1,14.6c-2.9-2.9-3.1-7.6-1.5-9.8-15.5,5.2-38.2,6.1-61.8-4.8,23.7,17.8,47.2,18.4,63.4,14.6h0Z"/>
      <path d="M37.3,33.9c3.6-1.3,6,1.3,6.6,3.7,6.9.3,9.1-6.2,6.1-10.5,4-2,3.1-9.4-2.6-9.5.5-6.2-4.1-9.7-10.2-7.6-1.8-4.1-6.2-4.7-9.2-1.6-5.8-2.8-13.9-.4-17.1,6.4,11.5-1.4,20.8,4.7,26.4,19.1Z"/>
      <path d="M131.8,23.9c-1,5.3,4.5,9.8,11,7.4.5,3.7,3.7,5.4,7.3,4.7-.8-9.7,6.8-17.8,16.1-19.9,6.4-1.4,15.1-.9,21.4,4.5-5.5-8.7-14.3-12.2-25.2-10.8-9,1.1-11.8,4.6-21.7,6.7-10.9,2.4-17.9,1-23.7-5.6,0,9,5.4,13.4,14.7,13.1h0Z"/>
      <path d="M126.2,122c-8.9,1.8-17.6,2.4-25.7,1.1-23.1-3.2-45.2-24.5-47-46.5-2.1-28.4,15.8-50.5,43.1-50.5s38.4,16.8,39.2,36c.3,11.6-5,24.7-18.9,30.7-6.1,2.9-10.8,1.1-12.7-1.6-1.8-2.6-.9-6.3,1.4-6.9,2.3-.6,4.9.8,4.2,3.7,8.1,1.8,11.2-5.8,7.1-10.5,2.8-3.9-.6-7.2-3.7-7.3-3.1,0-4.9,2.6-6,5.5-1.4,3.6-7,1.2-4.1-3.2,1.7-2.6,3.4-1.6,6.6-3.8,3-2.1,2.9-7.9-1.5-8.5,1.6-4.6-2.8-8.8-7.3-5.5-2.2-3.5-6.4-1.7-7.6,1-1.3,3,0,5.2-.7,7-1.1,3.3-5.1,2-4.5-1.7.7-4,3.7-3.4,3.9-8.7,0-3.4-3.1-7.2-7.7-5.3-2.1-6.6-12.1-4.7-12.1,2.3,3.2-3.1,7.5,0,7.9,7,.7,11.9-3,20.3,1.7,30.3,4.8,10.2,13.2,13.2,22.7,14,17,1.3,31.8-13.3,34.6-31.1.1-.7.8-1.2,1.5-1,.6.2.9.7.8,1.3-1,7.8-1.7,17.4-2.7,25.2-5.1-4.1-13.8,1-12.3,9-7.6,4.1-5.5,14.4,1.3,16.3-.7,5.9,3.2,10.5,9.2,9.5,0,5,5.2,7.9,10.5,5.2,7.5,5.4,16.6.3,16.7-6.6,0-3.9-2.2-6.8-5.6-7-2.1,0-4.2,1.4-4.2,3.5,1.9-2.2,5.2-1,5.2,2.1,0,3-1.7,4.5-5,4.7-6.6.3-9.5-6.7-10.5-11.9-1.6-8.7-1.9-17.7-.9-27.5,1-9,1.6-15.4,2.5-23.1.2-2.2-.9-4.3-2.9-5.3-1.6-.8-2.7-2.4-3-4.3-1-6.7-3.1-12.6-6.7-18.6,14.8,17.5,23.4,24.8,38.3,25,13,.1,25.3-8.9,25.3-25.4s-12.8-22.9-23.8-22.6c-11.3.4-19.3,7.7-19.6,18.1-.2,8.1,7.4,10.8,3.4,18.8,3.1,4.1,8.4,4.2,11-.1,4.5,5.3,12.9,1.5,12.1-5.5,7.1-2.8,6-12,1.1-14.2,3.5-7.8-5.2-12.1-8.6-8.6,2.4.8,2.3,4.6-.1,5.6-2.6,1.1-4.7-.9-4.9-3.8-.3-2.9,2.2-5.4,6.7-6.1,7.5-1.2,19.4,5.7,19.4,18.5s-10.1,22.2-21.7,21.9c-12.8-.3-19-5.5-31.6-20-13.2-15-24.7-20.7-40.6-21.2-23.1-.7-50.9,13.9-50,54.6,0,1.4-1.3,2.4-2.6,2.1-1-.2-1.7-1.2-1.7-2.2.2-5.4.4-11.7.4-19s-1.3-14.5-3.9-19.5c-1.3-2.9-3.9-1.8-2.9.6,2.4,6.3,3.4,13.4,3.4,21s-.3,11-.7,16.3c-.3,3.4,1.9,6.4,5.2,7.2,2.3.6,4.2,2.3,4.9,4.6,5.4,17.6,24.2,33.2,39.6,38.2,1.2.4,1.6,1.7.9,2.7-.4.7-1.2.9-2,.7-4.1-1.2-8.4-2.1-12.9-3.3-5-1.1-9.7-2.1-14.2-3.4-3.9-.8-6.2-3.9-3.2-8.2,3-4.4-2.2-10.5-7.3-7,0-6.8-7.2-9.5-11.5-3.9,0-3.2-4.4-4.3-6.9-2.6s-2.6,5.1-.5,8.7c1.9,3.3-4.6,4.4-3.9-.1.7-3.8-1.4-6.4-3.3-7.1-1.9-.7-5.2-.6-7,2.5-3-3.1-7.5-2-8.1,2.6-5.5-.7-8.9,3.2-6.5,8.4-5.1.3-5.8,7.6-1.3,9.5-.8,5.6,3,10.1,7.1,10.3,4.9.2,7.6-1.9,7.6-5.8-3.1,3.1-7.6,1-8.3-2.5-.7-3.5,1.9-8.6,10.4-8.6,12.6,0,51.5,9.9,69.2,14.4,2.6.6,5.2-.2,6.9-2.3h0c1.5-2,3.9-2.9,6.3-2.6,8.8,1.1,17.5.5,24.9-1.3-.7-1.4-1-2.7-.9-4.6h0ZM87.6,75.7c.2-6.6,7.8-5.9,7.6.8-.1,6.5-2.8,11.5,3.2,18.3-5.9-1.5-11.3-8.2-10.9-19.2h0ZM169.6,39.2c4.5,1.8,3.4,7.9-1.6,7.9s-10-12.1-6.9-19.2c.3,5.5,2.9,9.5,8.4,11.3h0Z"/>
      <path d="M236.7,16.1c-15.3,3.9-30.9,3.4-48.8-5.2,17.2,14.4,35.2,18.2,48.8,16-3.3-2.9-2.6-8.4,0-10.7Z"/>
      <path d="M227.5,37.6c0,1,.8,2.4,2,3.2-7.3-.5-9.7,2-16.6,2.9.5,1.7,2.1,2.8,3.1,3.2-6.7.3-11.9,4.1-17.9,5.2.5.8,1.7,2.3,4.2,2.5-5,.1-8.8,4.8-14.2,7.1.5,1.1,1.9,1.8,2.9,1.6-5.2,1.4-9,5.4-13.1,6.3.4,1,1.9,2.2,3.9,1.8-4.5,1.8-7.6,6.6-12.6,8.4.6,1.2,1.7,1.9,2.9,1.8-3.4,5.1-4.4,10.8-18.7,25,4.4-3.2,10.6-9.3,15.8-14.7,6.2-6.3,11.9-12.9,16.7-17.7,15.6-15.7,31.5-26.1,52-28.9-1.2-2.4-.8-5.4.7-6.8,0,0-5.7,1.3-11.3-1h0Z"/>
      <path d="M239.6,15.3c-3.8,3.5-4.2,7.9.2,12.9-2.9,2.9-2.4,6.3,1.3,10.3-1.6.9-2.5,3.9-1.2,6.6,5.2-.7,9.9,0,13.3.8,1.4-2.2,3.1-3,3.1-3-2.2-2.2-3.4-4.7-3.6-6.8.8-1.7,1.8-2.9,3.9-4.1-1.4-.9-2.8-3.4-3.4-5.5,1.2-2.4,2.6-3.9,4.9-5.1-2-2.2-3.1-4.6-3.5-7.2.9-1.8,2.4-3,5.1-4.2-4.4-5.4-14.2-7.3-23-5.6-1.8,3.7-.8,8.5,2.9,11h0Z"/>
      <path d="M201.4,21.5c12.4,11.6,29.2,17,36.4,15.5,0,0-4-4.8-.3-8.8-9.8,1.8-22.9.5-36.1-6.8h0Z"/>
    </g>
  </g>
</svg>