<?xml version="1.0" encoding="UTF-8"?>
<svg id="Calque_3" xmlns="http://www.w3.org/2000/svg" version="1.1" viewBox="0 0 496.06 640.63">
  <!-- Generator: Adobe Illustrator 30.1.0, SVG Export Plug-In . SVG Version: 2.1.1 Build 136)  -->
  <path d="M434.04,67.75l-38.69-22.89-.05.08c-.54-.35-1.14-.54-1.8-.54s-1.26.18-1.8.54l-.05-.08-38.68,22.89c-.42.17-.82.44-1.18.8-.69.69-1.04,1.5-1.04,2.43v46.22c0,.92.35,1.73,1.04,2.43.36.36.76.62,1.18.8l31.92,18.89c.35.51.76,1,1.22,1.46,2,2,4.47,3,7.4,3s5.39-1,7.39-3,3-4.47,3-7.4-1-5.39-3-7.4c-1.15-1.15-2.47-1.96-3.93-2.45v-27.39l37.07-21.93c.42-.17.82-.44,1.18-.8.69-.69,1.04-1.5,1.04-2.43s-.35-1.73-1.04-2.43c-.36-.36-.75-.62-1.18-.8h0ZM386.1,125.97c-1.27,1.27-2.13,2.72-2.59,4.35l-22.34-13.13,28.86-16.98v23.31c-1.46.49-2.78,1.3-3.93,2.45h0ZM391.65,91.08l-33.97,20.1v-38.15l35.82-21.07,32.33,19.02-34.18,20.11h0ZM395.93,135.79c-.69.69-1.5,1.04-2.43,1.04s-1.73-.35-2.43-1.04-1.04-1.5-1.04-2.43.35-1.73,1.04-2.43,1.5-1.04,2.43-1.04,1.73.35,2.43,1.04,1.04,1.5,1.04,2.43-.35,1.73-1.04,2.43Z"/>
  <path d="M106.55,123.1c0-1.83,3.93-5.76,5.76-5.76s5.76,3.93,5.76,5.76-3.93,5.76-5.76,5.76-5.76-3.93-5.76-5.76ZM123.82,107.47c0-1.83,3.93-5.76,5.76-5.76s5.76,3.93,5.76,5.76-3.93,5.76-5.76,5.76-5.76-3.93-5.76-5.76ZM123.82,138.72c0-1.83,3.93-5.76,5.76-5.76s5.76,3.93,5.76,5.76-3.93,5.76-5.76,5.76-5.76-3.93-5.76-5.76ZM124.36,123.1c0-1.64,3.56-5.21,5.21-5.21s5.21,3.56,5.21,5.21-3.56,5.21-5.21,5.21-5.21-3.56-5.21-5.21ZM141.08,123.1c0-1.83,3.93-5.76,5.76-5.76s5.76,3.93,5.76,5.76-3.93,5.76-5.76,5.76-5.76-3.93-5.76-5.76Z"/>
  <path d="M321.92,511.16l-132.21-78.23-.16.26c-1.85-1.21-3.9-1.84-6.16-1.84s-4.3.63-6.16,1.84l-.16-.26-116.09,68.69v-137.4c0-3.16-1.18-5.92-3.55-8.29s-5.14-3.55-8.29-3.55-5.92,1.18-8.29,3.55-3.55,5.13-3.55,8.29v157.95c0,3.16,1.18,5.92,3.55,8.29s5.13,3.55,8.29,3.55c2.26,0,4.31-.63,6.16-1.84l.15.26,127.93-75.26,110.48,64.99-76.34,44.87c-1.59-5.58-4.55-10.54-8.86-14.86-6.85-6.83-15.27-10.27-25.27-10.27s-18.44,3.43-25.27,10.27c-6.85,6.85-10.27,15.28-10.27,25.27s3.42,18.44,10.27,25.27c6.83,6.83,15.26,10.27,25.27,10.27s18.42-3.43,25.27-10.27c1.57-1.57,2.94-3.23,4.15-4.97l109.1-64.57c1.45-.59,2.79-1.49,4.02-2.72,2.37-2.37,3.55-5.13,3.55-8.29s-1.18-5.92-3.55-8.29c-1.23-1.23-2.57-2.13-4.01-2.72h0ZM191.68,585.74c-2.37,2.37-5.13,3.55-8.29,3.55s-5.92-1.18-8.29-3.55-3.55-5.13-3.55-8.29,1.18-5.92,3.55-8.29c2.37-2.37,5.13-3.55,8.29-3.55s5.92,1.18,8.29,3.55,3.55,5.13,3.55,8.29-1.18,5.92-3.55,8.29Z"/>
  <g>
    <path d="M347.48,336.98c.16,0,.3.56.55.74.29.21.71.01,1.02.37.05.06.64,1.32.62,1.4-.06.37-.9.61-1.1.96,1.6.38,2.5,2.26,3.56,3.01.85.6,2.03,1.04,2.92,1.89.61.57,2.36,3.82,3.11,3.59.97-.49,1.17-1.63,1.71-2.23.29-.33.76-.48,1-.79.07-.09.86-1.81.83-1.91-.24-.88-3.21-1.6-3.77-2.41-.36-.52.19-1.62-.17-2.2-.32-.52-2.14-1.43-1.83-1.82.89-1.15,3.34,2.4,3.82,2.91.25.27.59.37.77.57.61.67,1.34,2.47,2.4,1.33.37-.39,1.56-3.57,1.79-4.29.67-2.09,1.43-7.88-.5-9.37-.39-.3-1.02-.19-1.23-.5-.31-.46.2-.87.85-.68,1.7.52,2.08,2.4,2.32,3.91.71,4.57-1.1,8.42-2.69,12.6.29.67.82,1.18,1.21,1.79.18.28.14.72.36,1.02,1.37,1.91,8.53,2.6,10.93,2.74,1.2.07,3.7-.35,4.82.02.44.15.44.44.9.58,1.28.37,5.53-.1,7.32.16,1.05.15,2.29.68,3.47.8,2.33.25,4.67-.35,6.84-.23,2.44.13,5.31,1.02,7.81,1.02,1.3,0,2.79-.53,3.99-.54,4.11-.04,9.05,1.99,12.46,4.16.82.52,5.36,2.43,6.42,2.78.85.28,2.48.3,3.19.77.81.54,1.96,1.71,2.84,2.31,2.01,1.36,4.54,3.01,6.32,4.68,1.5,1.41,2.97,3.63,4.51,5.1,1,.96,2.23,1.56,3.12,2.5.56.59,2.26,3.4,2.48,3.56.16.11.51-.19.74-.15,1.81.31,3.43,5.36,3.78,5.34.05,0,.66-.5.72-.58.45-.68-.2-1.63-.19-2.13.03-1.14.49-2.03.22-3.51-.14-.81-.27-1.81-1.23-1.79.8-.89.03-.72-.23-1.1-.16-.24-.05-.69-.25-1.03-.9-1.58-3.28-4.76-4.54-6-1.03-1.02-3.36-1.73-1.73-3.62.76-.88,1.5-.22,2.09-1.38.38-.03,1.52,3.01,1.86,3.54.58.9,1.46,1.48,2,2.27,1.19,1.75,2.23,5.25,2.84,7.28.27.88,1.24,2.27,1.34,2.75.07.37-.17.72-.22,1.06-.07.64.43.86-.61,1.59.23.36.73.04.94.31.33.41.28,1.78.36,1.92.37.65.8.71,1.07,1.73.43,1.61-.31,2.54-.49,3.91,0,.07.1,1.28.13,1.34.22.37.78.45.99.82.15.26-.17.6-.04.78.37.53,1.16.76,1.26,1.68,1.31.02.3-1.41.85-2.06,1.99,1.79-.66,2.32-.68,2.49-.05.62,1.68,4.59,2.46,5l-.42.17c.5,1.55,1.39,3.36,1.81,4.89.32,1.19-.02,1.61.05,2.38.43,5.13,2.03,9.91,2.81,15.03.13.85-.1,2.1.04,2.9.5,3.06.72,4.43.59,7.64-.14,3.38-2.27,6.66-3.34,9.88-.67,2.02-.86,4.23-1.46,6.19-1.02,3.3-2.75,6.68-3.85,9.91-.73,2.14-.81,3.69-1.9,5.92-1.11,2.28-2.61,4.43-3.73,6.63-.63,1.23-.9,2.87-1.6,4.12-4.27,7.6-9.22,12.45-16.16,17.56-1.47,1.08-1.57,1.22-2.87,2.5-.81.8-3.63,2.46-4.72,2.78-.69.2-1.11-.25-1.39-.17s-.85.61-1.26.79c-3.03,1.34-6.1,2.82-9.15,4.02-1.13.45-2.26.09-3.25.48s-1.98,1.22-3.18,1.69c-2.04.8-4.47,1.33-6.59,1.96-.54.16-1.04.6-1.6.68-.97.14-2.32-.6-3.6-.37-.88.15-1.9.86-2.78.92-.63.04-1.55-.3-2.25-.31-7.2-.11-14.35-.56-21.54-.19-3.12.16-6.11.5-8.93-1.62-1.97-1.48-2.01-1.18-4.03-2.15-2.05-.98-4.19-2.74-6.17-3.64-2.54-1.16-5.83-1.25-8.81-2.81-4.06-2.13-4.18-3.75-6.83-6.68-2.51-2.78-5.65-5.11-8.36-7.65-.44-.41-1.13-.72-1.52-1.13-.5-.53-.63-1.22-1.11-1.61-.3-.24-.48.12-.63.03-.27-.15-3.16-4.53-3.48-5.13-.44-.81-1.01-2.16-1.37-3.04-1.07-2.56-2.81-5.85-4.23-8.4-2.03-3.62-4.54-8.02-5.09-12.06-.19-1.41-.92-2.61-1.34-3.94-2.05-6.51-1.59-12.48-1.67-19.12-.02-1.96.78-1.83,1.3-2.89.49-.99.35-2.97.61-4.07.42-1.81,1.28-2.52,2.13-4,.36-.62.34-1.41.93-1.92.71.67-.25,1.34-.47,1.89-.4.97-.76,3.08-.98,4.23-.1.51-.64,3.29-.61,3.46.14.73.71.84.88,1.44.14.47-.15,2.7-.13,3.43.34,11.05,2.05,21.77,7.75,31.42,2.29,3.87,4.37,6.95,7.04,10.61.56.76,1.68,4.81,2.37,4.85.46-2.16,2.76.04,3.54.91,1.35,1.51,1.74,3.83,3.01,5.3,2.56,2.97,6.63,4.87,9.09,7.39.82.84,1.97,2.76,2.88,3.27.32.18,2.98.32,3.73.5,1.33.32,3.45,1.08,4.71,1.61,5.12,2.13,9.12,5.69,14.45,7.54,1.94.67,5.93.35,8.09.73,1.29.22,2.29,1,3.92.78,1.69-.23,2.77-1.34,4.06-1.82,1.01-.37,7.19-1.46,8.26-1.42,2.49.07,4.88,1.15,7.24,1.5,2.47-1.02,5.22-2.66,7.69-3.55,3.08-1.11,7.35.11,10.31-2.1.31-.24.36-.65.67-.89.42-.33,1.73-.47,2.2-.77,1.01-.64,1.33-.9,2.44-1.5,3.34-1.79,3.7-3.34,6.23-5.56.58-.51,1.87-.94,2.3-1.37.4-.39.69-1.32,1.09-1.84,1.4-1.84,2.69-2.2,4.25-3.56,2.21-1.94,4.84-5.73,6.68-8.11,1.98-2.56,4.51-4.55,6.24-7.07,3.71-5.39,4.31-9.86,6.05-15.85,1.14-3.95,2.4-6.78,2.89-10.9s.82-7.28.77-11.22c-.08-5.95-1.15-13.54-3.09-19.18-1.09-3.16-3.22-6.12-4.56-9.2-.94-.18-4.55-2.02-5.23-1.83-.1.03-1.53,1.03-1.66,1.16-.52.53-.81,1.76-1.67,1.86-1.13.13-2.03-.76-2.2-1.81-.43-2.76,1.79-2.34,3.08-3.38.9-.73,1.89-1.98,2.35-3.05.2-.46.1-.98.43-1.52.25-.4,1.4-1.45,1.32-1.75-.14-.56-1.79-2.54-2.22-3.27-1.07-1.82-1.62-3.61-2.9-5.34-4.15-5.6-8.76-7.85-14.26-11.67-2.99-2.07-4.88-3.84-8.22-5.41-10-4.69-18.41-7.29-29.5-7.55-2.97-.07-6.24.96-9.17,1.28-1.12.12-2.78-.21-3.87.1-.63.18-.85.78-1.28.81-.61.03-1.09-.6-1.69-.66-.36-.04-2.52.25-2.95.35-1.88.41-3.71,1.5-5.45,2.33,3.06.58,5.84,1.99,8.74,3.04.5.18,1.06.12,1.51.29,1.12.43,2.31,1.84.74,2.36-1.34.44-1.68-.95-2.61-1.52-.5-.3-3.82-1.28-4.57-1.47-.34-.09-3.94-.03-4.17.07-1.23.54-.4,2.53,0,3.42.27.6,1.11,1.14.46,1.61-1.14.83-1.52-2.02-2.11-2.49-.26-.21-1.74-.77-1.95-.54-.06.64.55,1.23-.12,1.72-.33.02-.98-2.2-2.21-.7-.85,1.03.48,3.85-1.63,2.57-1.47-.89-1.79-2.27-3.1-3.24-.24.44-1.71,3.15-1.67,3.33.07.27.8,1.08,1.06,1.31.72.64,3.23,1.42,2.14,2.49-.96.93-2.17-1.24-2.76-1.78-1.42-1.29-1.91-1.1-3.04.42,1.84.96,1.66,3.68,2.58,4.99.62.88,3.58,3.21,1.77,4.31-.3.18-.61.08-.91-.02-1.47-.52-1.3-2.54-1.74-3.79-.22-.6-1.34-3-1.78-3.26-.11-.07-2.31-.63-2.43-.64-.52-.04-1.41.45-1.98.51-.62.07-3.05-.32-3.29-.24-.78.26-2.49,4-2.83,4.94-.16.47-.66,2.39-.64,2.79.03.51.8,2.19.73,2.49-.14.68-1.44.9-1.53.02-.27-3.39.82-7,1.49-10.35.13-.24-.13-.27-.31-.3-.51-.08-3.32.16-3.7.44-.81.58-1.36,1.67-2.25,2.32-1.4,1.04-3.5,1.02-5.36,2.76-.7.65-1.45,2.71-2.3,3.5-.94.88-1.7-.21-1.08-1.45.33-.67.87-.79,1.13-1.24,1.28-2.22,2.41-4.24,4.17-6.22.28-.32.53-.56.93-.71-.66-.73-1.68-.75-2.52-1.11-3.1-1.34-5.73-2.3-8.72-3.88-.81-.43-.84-.58-1.72-.92-3.17-1.25.68-3.56,1.94-2.98,1.06.49.7,1.31.86,1.49.09.09,1.88.32,2.39.57,1.66.82,3.33,2.73,5.43,3.61,1.79.75,5.15,1.42,5.48-1.28-.07-.29-2.11-1.14-2.5-1.24-.82-.21-2.53.2-2.6-1.14-.1-1.81,1.92-.51,2.67-.33,1.05.26,3.09.96,3.93,1.03,4.1.38-.5-3.58-1.89-4.27-.66-.33-1.24-.17-1.81-.36-.76-.25-1.9-.6-2.45-1.11,1.4-1.35,2.35-.26,3.74.32,1.31.54,2.73.98,3.98,1.75.62.38,1.1.85,1.64,1.32l3.74-3.33c.25-1.92,1.03-4.04,1.15-5.95.07-1.02-.26-2.29-.34-3.26-.24-2.79.03-6.13-3.39-6.97-.21-.53.39-.52.53-.89.5-1.34-2.45-2.71-2.59-3.28-.03-.11.46-1.71.63-1.85.31-.25.96-.41,1.35-.37.5.04.54.4.75.42.2.02.41-.22.52-.21l.05-.05ZM357.73,352.27c-1.05-.73-.73-2.16-1.39-3.12-.55-.79-2.45-2.94-3.19-3.47-.22-.16-1.33-.56-1.53-.42l.46,10.11c1.06,1.33,3.06-.25,4.2-.69.14-.05.47.2.66.07.54-.36.14-1.97.79-2.48h0ZM359.97,349.16c.87,1.05,1.98.04,2.88-.35.26-.11.68,0,.9-.14.67-.43-.27-3.64-1.22-3.98-.11,1.16-.85,1.85-1.38,2.84-.21.4-.24,1-.38,1.22-.19.3-.64.04-.81.42h.01ZM468.41,417.09c-.46.02.16,1.33.22,1.32.46-.02-.16-1.33-.22-1.32Z"/>
    <path d="M325.38,394.02c-.87-.03-1.29-.83-.93-1.58.23-.48.63-.56.88-.93.56-.85,2.01-3.6,2.52-4.62.38-.77,1.09-4.78,2.3-4.27,1.28.55.56,1.87.62,2.9.02.28.18,1.56.25,1.77.33,1.09,1.3,1.56.94,2.92-.63,2.36-2.5,2.03-4.33,2.71-.62.23-1.58,1.11-2.24,1.09h-.01Z"/>
    <path d="M366.68,369.54c.86-1.14,3.02-.07,1.81,1.41-1,1.21-2.73-.19-1.81-1.41Z"/>
    <path d="M471.5,391.58c-.02.12.23.25,0,.53-.14.17-.82.71-.99.77-.94.31-.32-1.65.59-2.2.61-.37.46.44.41.91h-.01Z"/>
    <path d="M464.81,386.31c.15-.02.64,1.19.61,1.38-.16,1.04-.62.15-1.02-.06s-1.61,1.13-1.08-1.23c.99,1.79,1.13-.05,1.49-.09Z"/>
    <path d="M467.19,368.74c.62,1.72-2.1,1.62-.93.43.24-.25.69-.16.93-.43Z"/>
    <path d="M475.58,389.7c.26.26-.59,1.37-.66,1.38-.03,0-.47-.39-.47-.42-.02-.15,1-.67,1.13-.96Z"/>
    <path d="M467.41,382.43c.14-.02.81,1.22.08,1.48-.08-.2-.5-1.42-.08-1.48Z"/>
    <path d="M468.54,381.47c1.08.8-.35,1.65-.21.23l.21-.23Z"/>
    <path d="M466.62,371.61c.56,1.18-.8,1.23-.48.55.09-.19.34-.36.48-.55Z"/>
    <path d="M463.98,379.95c-.54.05-.14-1.25.32-.83.16.15-.13.82-.32.83Z"/>
    <path d="M468.5,370.75c.18.23.16,1.02-.09,1.04-.44.04-.2-.81.09-1.04Z"/>
    <path d="M464,382.78c-.17.01-.35-.55-.26-.65.39-.44.71.62.26.65Z"/>
    <path d="M467.22,391.83c-.17.01-.35-.55-.26-.65.39-.44.71.62.26.65Z"/>
  </g>
  <path d="M66.73,267.21c0-18.26,15.72-26.33,30.16-26.33.85,0,2.55,0,4.25.43,5.52,27.61,14.87,36.53,40.78,36.53,36.95,0,66.26-19.11,66.26-46.72,0-15.29-8.07-23.79-31.86-23.79h-75.18c-56.07,0-76.03-22.09-76.03-56.92s27.61-60.74,72.63-82.4v-1.7h-19.96c-33.13,0-41.2,2.55-52.67,8.92-2.12-.43-4.67-5.52-4.67-7.22l.42-1.27c23.79-20.81,43.75-30.16,67.96-30.16h110.86c33.13,0,41.2-2.55,52.67-8.92,2.12.43,4.67,5.52,4.67,7.22l-.43,1.27c-23.79,20.81-43.75,30.16-67.96,30.16h-62.86c-48.42,23.36-67.54,45.87-67.54,72.21s12.74,39.08,53.52,39.08h75.18c39.93,0,54.37,11.89,54.37,35.25,0,1.7,0,3.4-.43,5.1l1.7,1.27c48.85-39.93,79.43-52.67,114.69-52.67,39.08,0,65.41,22.94,65.41,62.01s-43.33,70.08-87.5,70.08c-21.66,0-31.01-10.62-31.01-24.21,0-17.84,16.14-27.18,31.01-27.18,1.27,0,2.97,0,4.25.43,3.82,21.24,9.77,29.73,23.36,29.73,16.99,0,31.43-12.74,31.43-35.68,0-29.73-19.96-48.42-55.64-48.42-46.72,0-77.73,25.06-120.21,65.41-24.21,22.94-64.99,39.93-106.19,39.93-31.43,0-45.45-14.02-45.45-31.43h0Z"/>
  <path d="M187.03,103.3c0-2.17,2.42-4.33,8.79-7.39,1.78,1.15,3.19,1.53,9.94,1.53h81.16v-27.27c0-5.22-.25-6.12-1.66-6.12-1.27,0-3.31.76-5.1,1.53-.38-.13-1.15-1.78-1.15-2.55l.13-.26c6.12-3.06,13.25-5.1,15.8-5.1,1.53,0,2.17.76,2.17,4.08v75.68c0,5.22.26,6.12,1.66,6.12,1.27,0,3.19-.64,4.97-1.4.38.13,1.27,1.66,1.27,2.42l-.13.25c-6.12,3.06-13.25,5.1-15.8,5.1-1.53,0-2.17-.76-2.17-4.08v-11.85l-.64-.13c-5.99,9.56-15.29,15.8-25.74,15.8s-17.96-5.22-21.15-14.01c-5.99,8.54-14.78,14.01-24.59,14.01-13,0-22.68-8.92-22.68-22.93,0-8.03,4.2-15.29,10.96-20.39h-2.68c-11.34,0-13.38-.51-13.38-3.06l.02.02ZM219.26,140.38c7.52,0,13.12-3.06,18.86-9.43-.13-1.4-.25-2.8-.25-4.2,0-8.03,4.2-15.29,10.96-20.39h-40.26c-4.2,3.06-6.5,8.15-6.5,15.29,0,12.1,7.01,18.73,17.2,18.73h-.01ZM265,140.38c8.79,0,15.03-4.2,21.91-13v-21.02h-32.62c-4.2,3.06-6.5,8.15-6.5,15.29,0,12.1,7.01,18.73,17.2,18.73h0Z"/>
  <path d="M117.63,343.69c0-5.45,11.67-17.15,17.13-17.15,4.67,0,14.29,8.84,16.62,14.81,8.84-8.31,18.44-12.99,31.95-12.99,17.13,0,34.27,9.36,51.4,9.36s29.35-8.57,47.78-27.53c1.82.26,4.16,2.85,4.42,4.42-20.51,26.22-37.91,41.28-63.62,41.28-17.15,0-34.27-10.39-51.42-10.39-12.45,0-19.22,2.35-25.43,7.79-3.91,4.15-8.58,7.54-11.69,7.54-5.45,0-17.13-11.69-17.13-17.14h0ZM117.63,399.02c0-5.44,11.67-17.14,17.13-17.14,4.16,0,12.47,7.27,15.58,12.98,9.09-9.86,18.44-15.32,32.71-15.32,18.96,0,37.65,14.55,56.62,14.55,12.2,0,18.44-2.08,24.4-6.75,1.56.52,3.64,3.12,3.64,4.67-11.16,12.98-21.82,20.25-39.47,20.25-18.94,0-37.63-15.58-56.6-15.58-11.42,0-17.15,2.86-22.85,9.09-3.89,5.19-10.38,10.39-14.02,10.39-5.45,0-17.13-11.69-17.13-17.15h0Z"/>
</svg>