<?xml version="1.0" encoding="UTF-8"?>
<svg id="Calque_1" xmlns="http://www.w3.org/2000/svg" version="1.1" xmlns:cc="http://creativecommons.org/ns#" xmlns:dc="http://purl.org/dc/elements/1.1/" xmlns:inkscape="http://www.inkscape.org/namespaces/inkscape" xmlns:rdf="http://www.w3.org/1999/02/22-rdf-syntax-ns#" xmlns:sodipodi="http://sodipodi.sourceforge.net/DTD/sodipodi-0.dtd" xmlns:svg="http://www.w3.org/2000/svg" viewBox="0 0 80 83.98">
  <!-- Generator: Adobe Illustrator 30.1.0, SVG Export Plug-In . SVG Version: 2.1.1 Build 136)  -->
  <defs>
    <style>
      .st0 {
        fill: #1d1d1b;
      }
    </style>
  </defs>
  <path class="st0" d="M79.2,28.38L41.2.38c-.8-.5-1.5-.5-2.5,0L.8,28.38c-.5.4-.8,1-.8,1.6v52c0,1,1,2,2,2h76c1,0,2-1,2-2V29.98c0-.6-.3-1.3-.8-1.6ZM76,79.98H4V30.98L40,4.48l36,26.5v49Z"/>
  <g>
    <path class="st0" d="M48,54.88c1.1,0,1.9-.9,1.9-2v-11.7c0-3.9-2.8-7.1-6.3-7.1h-7.4c-3.5,0-6.3,3.2-6.3,7.1v11.7c0,1.1.8,2,1.9,2h1.3v-12.7c0-.3.2-.6.6-.6s.6.3.6.6v32.9c0,1.4,1.1,2.5,2.3,2.5h.2c.7,0,1.3-.3,1.8-.7.5-.5.7-1.1.7-1.8v-17.6c0-.3.3-.6.6-.6s.5.3.5.6v17.6c0,1.4,1.1,2.5,2.5,2.5h.2c1.3,0,2.3-1.1,2.3-2.5v-32.9c0-.3.2-.6.6-.6s.6.3.6.6v12.7h1.3"/>
    <path class="st0" d="M40,23.58c2.5,0,4.6,2.1,4.6,4.6s-2.1,4.6-4.6,4.6-4.6-2.1-4.6-4.6,2.1-4.6,4.6-4.6"/>
  </g>
</svg>